<svg xmlns="http://www.w3.org/2000/svg" xmlns:xlink="http://www.w3.org/1999/xlink" width="100" zoomAndPan="magnify" viewBox="0 0 75 30.000001" height="40" preserveAspectRatio="xMidYMid meet" version="1.0"><defs><g/><clipPath id="d8e54c1f29"><path d="M 1.210938 0 L 73.789062 0 L 73.789062 29.03125 L 1.210938 29.03125 Z M 1.210938 0 " clip-rule="nonzero"/></clipPath><clipPath id="f3501cb39a"><path d="M 5.039062 0 L 69.960938 0 C 72.078125 0 73.789062 1.714844 73.789062 3.828125 L 73.789062 25.203125 C 73.789062 27.320312 72.078125 29.03125 69.960938 29.03125 L 5.039062 29.03125 C 2.921875 29.03125 1.210938 27.320312 1.210938 25.203125 L 1.210938 3.828125 C 1.210938 1.714844 2.921875 0 5.039062 0 Z M 5.039062 0 " clip-rule="nonzero"/></clipPath></defs><g clip-path="url(#d8e54c1f29)"><g clip-path="url(#f3501cb39a)"><path fill="#2b2b2b" d="M 1.210938 0 L 73.789062 0 L 73.789062 29.03125 L 1.210938 29.03125 Z M 1.210938 0 " fill-opacity="1" fill-rule="nonzero"/></g></g><g fill="#ffffff" fill-opacity="1"><g transform="translate(6.556162, 20.595607)"><g><path d="M 13.636719 -11.417969 L 18.457031 -11.417969 L 18.457031 -8.917969 L 17.578125 -8.917969 L 14.957031 0 L 11.160156 0 L 8.476562 -8.917969 L 10.195312 -5.738281 L 8.792969 -5.738281 L 10.328125 -8.917969 L 7.496094 0 L 3.6875 0 L 1.066406 -8.917969 L 0.1875 -8.917969 L 0.1875 -11.417969 L 5.648438 -11.417969 L 5.648438 -8.917969 L 4.316406 -8.917969 L 6.734375 0 L 4.808594 -3.148438 L 6.855469 -3.148438 L 4.964844 0 L 7.929688 -8.917969 L 6.683594 -8.917969 L 6.683594 -11.417969 L 12.628906 -11.417969 L 12.628906 -8.917969 L 11.394531 -8.917969 L 14.359375 0 L 12.339844 -3.148438 L 14.484375 -3.148438 L 12.589844 0 L 15.019531 -8.917969 L 13.636719 -8.917969 Z M 13.636719 -11.417969 "/></g></g></g><g fill="#ffffff" fill-opacity="1"><g transform="translate(27.474712, 20.332833)"><g><path d="M 4.714844 0.0117188 L 7.40625 0.0117188 L 7.40625 -6.730469 L 6.054688 -6.730469 L 6.054688 -1.335938 L 4.714844 -1.335938 Z M 0.675781 0.0117188 L 3.363281 0.0117188 L 3.363281 -1.335938 L 2.027344 -1.335938 L 2.027344 -6.730469 L 0.675781 -6.730469 Z M 3.363281 -1.335938 L 4.714844 -1.335938 L 4.714844 -4.039062 L 3.363281 -4.039062 Z M 3.363281 -1.335938 "/></g></g></g><g fill="#ffffff" fill-opacity="1"><g transform="translate(35.552682, 20.332833)"><g><path d="M 0.675781 0 L 2.027344 0 L 2.027344 -2.703125 L 3.378906 -2.703125 L 3.378906 0 L 4.730469 0 L 4.730469 -6.757812 L 0.675781 -6.757812 Z M 2.027344 -4.054688 L 2.027344 -5.40625 L 3.378906 -5.40625 L 3.378906 -4.054688 Z M 2.027344 -4.054688 "/></g></g></g><g fill="#ffffff" fill-opacity="1"><g transform="translate(40.956008, 20.332833)"><g><path d="M 0.675781 0 L 4.730469 0 L 4.730469 -1.351562 L 2.027344 -1.351562 L 2.027344 -6.757812 L 0.675781 -6.757812 Z M 0.675781 0 "/></g></g></g><g fill="#ffffff" fill-opacity="1"><g transform="translate(46.359335, 20.332833)"><g><path d="M 0.675781 0 L 4.730469 0 L 4.730469 -1.351562 L 2.027344 -1.351562 L 2.027344 -6.757812 L 0.675781 -6.757812 Z M 0.675781 0 "/></g></g></g><g fill="#ffffff" fill-opacity="1"><g transform="translate(51.762662, 20.332833)"><g><path d="M 0.675781 0 L 4.730469 0 L 4.730469 -1.351562 L 2.027344 -1.351562 L 2.027344 -2.703125 L 4.730469 -2.703125 L 4.730469 -4.054688 L 2.027344 -4.054688 L 2.027344 -5.40625 L 4.730469 -5.40625 L 4.730469 -6.757812 L 0.675781 -6.757812 Z M 0.675781 0 "/></g></g></g><g fill="#ffffff" fill-opacity="1"><g transform="translate(57.165989, 20.332833)"><g><path d="M 2.027344 0 L 3.378906 0 L 3.378906 -5.40625 L 4.730469 -5.40625 L 4.730469 -6.757812 L 0.675781 -6.757812 L 0.675781 -5.40625 L 2.027344 -5.40625 Z M 2.027344 0 "/></g></g></g><g fill="#ffffff" fill-opacity="1"><g transform="translate(62.569316, 20.332833)"><g><path d="M 0.675781 0 L 4.730469 0 L 4.730469 -4.054688 L 2.027344 -4.054688 L 2.027344 -5.40625 L 4.730469 -5.40625 L 4.730469 -6.757812 L 0.675781 -6.757812 L 0.675781 -2.703125 L 3.378906 -2.703125 L 3.378906 -1.351562 L 0.675781 -1.351562 Z M 0.675781 0 "/></g></g></g><g fill="#ffffff" fill-opacity="1"><g transform="translate(26.12316, 12.689168)"><g/></g></g><g fill="#ffffff" fill-opacity="1"><g transform="translate(28.020206, 12.689168)"><g><path d="M 0.378906 0 L 2.65625 0 L 2.65625 -0.757812 L 1.136719 -0.757812 L 1.136719 -3.035156 L 2.65625 -3.035156 L 2.65625 -3.792969 L 0.378906 -3.792969 Z M 0.378906 0 "/></g></g></g><g fill="#ffffff" fill-opacity="1"><g transform="translate(31.053365, 12.689168)"><g><path d="M 0.378906 0 L 1.136719 0 L 1.136719 -1.515625 L 1.894531 -1.515625 L 1.894531 -2.277344 L 1.136719 -2.277344 L 1.136719 -3.035156 L 1.894531 -3.035156 L 1.894531 -2.277344 L 2.65625 -2.277344 L 2.65625 -3.792969 L 0.378906 -3.792969 Z M 1.894531 0 L 2.65625 0 L 2.65625 -1.515625 L 1.894531 -1.515625 Z M 1.894531 0 "/></g></g></g><g fill="#ffffff" fill-opacity="1"><g transform="translate(34.086524, 12.689168)"><g><path d="M 0.378906 0 L 2.65625 0 L 2.65625 -3.792969 L 1.894531 -3.792969 L 1.894531 -2.277344 L 1.136719 -2.277344 L 1.136719 -3.792969 L 0.378906 -3.792969 L 0.378906 -1.515625 L 1.894531 -1.515625 L 1.894531 -0.765625 L 0.378906 -0.765625 Z M 0.378906 0 "/></g></g></g><g fill="#ffffff" fill-opacity="1"><g transform="translate(37.119684, 12.689168)"><g><path d="M 0.378906 0 L 1.136719 0 L 1.136719 -1.515625 L 2.65625 -1.515625 L 2.65625 -3.792969 L 0.378906 -3.792969 Z M 1.136719 -2.277344 L 1.136719 -3.035156 L 1.894531 -3.035156 L 1.894531 -2.277344 Z M 1.136719 -2.277344 "/></g></g></g><g fill="#ffffff" fill-opacity="1"><g transform="translate(40.152843, 12.689168)"><g><path d="M 1.136719 0 L 1.894531 0 L 1.894531 -3.035156 L 2.65625 -3.035156 L 2.65625 -3.792969 L 0.378906 -3.792969 L 0.378906 -3.035156 L 1.136719 -3.035156 Z M 1.136719 0 "/></g></g></g><g fill="#ffffff" fill-opacity="1"><g transform="translate(43.186002, 12.689168)"><g><path d="M 0.378906 0 L 2.65625 0 L 2.65625 -3.792969 L 0.378906 -3.792969 Z M 1.136719 -0.757812 L 1.136719 -3.035156 L 1.894531 -3.035156 L 1.894531 -0.757812 Z M 1.136719 -0.757812 "/></g></g></g></svg>