<svg xmlns="http://www.w3.org/2000/svg" xmlns:xlink="http://www.w3.org/1999/xlink" width="200" zoomAndPan="magnify" viewBox="0 0 150 37.5" height="50" preserveAspectRatio="xMidYMid meet" version="1.0"><defs><g/><clipPath id="5a0f20c7bb"><path d="M 27.003906 3.699219 L 123 3.699219 L 123 33.304688 L 27.003906 33.304688 Z M 27.003906 3.699219 " clip-rule="nonzero"/></clipPath><clipPath id="e1a9efa0f2"><path d="M 34.40625 3.699219 L 115.59375 3.699219 C 119.679688 3.699219 122.996094 7.015625 122.996094 11.101562 L 122.996094 25.90625 C 122.996094 29.992188 119.679688 33.304688 115.59375 33.304688 L 34.40625 33.304688 C 30.320312 33.304688 27.003906 29.992188 27.003906 25.90625 L 27.003906 11.101562 C 27.003906 7.015625 30.320312 3.699219 34.40625 3.699219 Z M 34.40625 3.699219 " clip-rule="nonzero"/></clipPath></defs><g clip-path="url(#5a0f20c7bb)"><g clip-path="url(#e1a9efa0f2)"><path fill="#2b2b2b" d="M 27.003906 3.699219 L 122.992188 3.699219 L 122.992188 33.304688 L 27.003906 33.304688 Z M 27.003906 3.699219 " fill-opacity="1" fill-rule="nonzero"/></g></g><g fill="#ffffff" fill-opacity="1"><g transform="translate(34.938006, 24.608283)"><g><path d="M 13.5625 -11.355469 L 18.355469 -11.355469 L 18.355469 -8.867188 L 17.484375 -8.867188 L 14.875 0 L 11.097656 0 L 8.429688 -8.867188 L 10.140625 -5.707031 L 8.742188 -5.707031 L 10.273438 -8.867188 L 7.453125 0 L 3.667969 0 L 1.058594 -8.867188 L 0.1875 -8.867188 L 0.1875 -11.355469 L 5.621094 -11.355469 L 5.621094 -8.867188 L 4.292969 -8.867188 L 6.695312 0 L 4.78125 -3.132812 L 6.820312 -3.132812 L 4.9375 0 L 7.886719 -8.867188 L 6.648438 -8.867188 L 6.648438 -11.355469 L 12.5625 -11.355469 L 12.5625 -8.867188 L 11.332031 -8.867188 L 14.28125 0 L 12.269531 -3.132812 L 14.40625 -3.132812 L 12.523438 0 L 14.9375 -8.867188 L 13.5625 -8.867188 Z M 13.5625 -11.355469 "/></g></g></g><g fill="#ffffff" fill-opacity="1"><g transform="translate(63.849301, 25.043109)"><g><path d="M 5.808594 0.015625 L 9.121094 0.015625 L 9.121094 -8.289062 L 7.457031 -8.289062 L 7.457031 -1.648438 L 5.808594 -1.648438 Z M 0.832031 0.015625 L 4.144531 0.015625 L 4.144531 -1.648438 L 2.496094 -1.648438 L 2.496094 -8.289062 L 0.832031 -8.289062 Z M 4.144531 -1.648438 L 5.808594 -1.648438 L 5.808594 -4.976562 L 4.144531 -4.976562 Z M 4.144531 -1.648438 "/></g></g></g><g fill="#ffffff" fill-opacity="1"><g transform="translate(73.800826, 25.043109)"><g><path d="M 0.832031 0 L 2.496094 0 L 2.496094 -3.328125 L 4.160156 -3.328125 L 4.160156 0 L 5.824219 0 L 5.824219 -8.324219 L 0.832031 -8.324219 Z M 2.496094 -4.992188 L 2.496094 -6.660156 L 4.160156 -6.660156 L 4.160156 -4.992188 Z M 2.496094 -4.992188 "/></g></g></g><g fill="#ffffff" fill-opacity="1"><g transform="translate(80.457369, 25.043109)"><g><path d="M 0.832031 0 L 5.824219 0 L 5.824219 -1.664062 L 2.496094 -1.664062 L 2.496094 -8.324219 L 0.832031 -8.324219 Z M 0.832031 0 "/></g></g></g><g fill="#ffffff" fill-opacity="1"><g transform="translate(87.113911, 25.043109)"><g><path d="M 0.832031 0 L 5.824219 0 L 5.824219 -1.664062 L 2.496094 -1.664062 L 2.496094 -8.324219 L 0.832031 -8.324219 Z M 0.832031 0 "/></g></g></g><g fill="#ffffff" fill-opacity="1"><g transform="translate(93.770453, 25.043109)"><g><path d="M 0.832031 0 L 5.824219 0 L 5.824219 -1.664062 L 2.496094 -1.664062 L 2.496094 -3.328125 L 5.824219 -3.328125 L 5.824219 -4.992188 L 2.496094 -4.992188 L 2.496094 -6.660156 L 5.824219 -6.660156 L 5.824219 -8.324219 L 0.832031 -8.324219 Z M 0.832031 0 "/></g></g></g><g fill="#ffffff" fill-opacity="1"><g transform="translate(100.426995, 25.043109)"><g><path d="M 2.496094 0 L 4.160156 0 L 4.160156 -6.660156 L 5.824219 -6.660156 L 5.824219 -8.324219 L 0.832031 -8.324219 L 0.832031 -6.660156 L 2.496094 -6.660156 Z M 2.496094 0 "/></g></g></g><g fill="#ffffff" fill-opacity="1"><g transform="translate(107.083538, 25.043109)"><g><path d="M 0.832031 0 L 5.824219 0 L 5.824219 -4.992188 L 2.496094 -4.992188 L 2.496094 -6.660156 L 5.824219 -6.660156 L 5.824219 -8.324219 L 0.832031 -8.324219 L 0.832031 -3.328125 L 4.160156 -3.328125 L 4.160156 -1.664062 L 0.832031 -1.664062 Z M 0.832031 0 "/></g></g></g><g fill="#ffffff" fill-opacity="1"><g transform="translate(62.027435, 15.626619)"><g/></g></g><g fill="#ffffff" fill-opacity="1"><g transform="translate(64.364471, 15.626619)"><g><path d="M 0.46875 0 L 3.269531 0 L 3.269531 -0.933594 L 1.402344 -0.933594 L 1.402344 -3.738281 L 3.269531 -3.738281 L 3.269531 -4.671875 L 0.46875 -4.671875 Z M 0.46875 0 "/></g></g></g><g fill="#ffffff" fill-opacity="1"><g transform="translate(68.101123, 15.626619)"><g><path d="M 0.46875 0 L 1.402344 0 L 1.402344 -1.867188 L 2.335938 -1.867188 L 2.335938 -2.804688 L 1.402344 -2.804688 L 1.402344 -3.738281 L 2.335938 -3.738281 L 2.335938 -2.804688 L 3.269531 -2.804688 L 3.269531 -4.671875 L 0.46875 -4.671875 Z M 2.335938 0 L 3.269531 0 L 3.269531 -1.867188 L 2.335938 -1.867188 Z M 2.335938 0 "/></g></g></g><g fill="#ffffff" fill-opacity="1"><g transform="translate(71.837775, 15.626619)"><g><path d="M 0.46875 0 L 3.269531 0 L 3.269531 -4.671875 L 2.335938 -4.671875 L 2.335938 -2.804688 L 1.402344 -2.804688 L 1.402344 -4.671875 L 0.46875 -4.671875 L 0.46875 -1.867188 L 2.335938 -1.867188 L 2.335938 -0.945312 L 0.46875 -0.945312 Z M 0.46875 0 "/></g></g></g><g fill="#ffffff" fill-opacity="1"><g transform="translate(75.574427, 15.626619)"><g><path d="M 0.46875 0 L 1.402344 0 L 1.402344 -1.867188 L 3.269531 -1.867188 L 3.269531 -4.671875 L 0.46875 -4.671875 Z M 1.402344 -2.804688 L 1.402344 -3.738281 L 2.335938 -3.738281 L 2.335938 -2.804688 Z M 1.402344 -2.804688 "/></g></g></g><g fill="#ffffff" fill-opacity="1"><g transform="translate(79.311079, 15.626619)"><g><path d="M 1.402344 0 L 2.335938 0 L 2.335938 -3.738281 L 3.269531 -3.738281 L 3.269531 -4.671875 L 0.46875 -4.671875 L 0.46875 -3.738281 L 1.402344 -3.738281 Z M 1.402344 0 "/></g></g></g><g fill="#ffffff" fill-opacity="1"><g transform="translate(83.047732, 15.626619)"><g><path d="M 0.46875 0 L 3.269531 0 L 3.269531 -4.671875 L 0.46875 -4.671875 Z M 1.402344 -0.933594 L 1.402344 -3.738281 L 2.335938 -3.738281 L 2.335938 -0.933594 Z M 1.402344 -0.933594 "/></g></g></g></svg>