<?xml version="1.0" standalone="no"?>
<!DOCTYPE svg PUBLIC "-//W3C//DTD SVG 20010904//EN"
 "http://www.w3.org/TR/2001/REC-SVG-20010904/DTD/svg10.dtd">
<svg version="1.0" xmlns="http://www.w3.org/2000/svg"
 width="1080.000000pt" height="1080.000000pt" viewBox="0 0 1080.000000 1080.000000"
 preserveAspectRatio="xMidYMid meet">

<g transform="translate(0.000000,1080.000000) scale(0.100000,-0.100000)"
fill="#000000" stroke="none">
<path d="M0 5400 l0 -5400 5400 0 5400 0 0 5400 0 5400 -5400 0 -5400 0 0
-5400z m2611 2044 c16 -15 20 -15 41 0 20 14 74 16 445 16 l423 0 0 -28 c0
-15 11 -43 24 -63 18 -26 34 -84 61 -220 20 -101 39 -195 42 -209 3 -19 2 -21
-5 -11 -9 12 -14 12 -36 -2 l-26 -17 20 -33 c24 -38 25 -48 6 -41 -18 7 -72
-21 -80 -41 -18 -47 1 -109 44 -142 24 -20 81 -16 105 7 l22 21 41 -206 41
-205 -24 -25 c-44 -43 -25 -129 34 -159 16 -9 31 -26 34 -38 11 -46 87 -440
87 -451 0 -7 -15 11 -33 39 -29 46 -34 50 -54 41 -28 -12 -29 -23 -3 -64 l20
-33 -34 0 c-67 0 -97 -79 -56 -146 39 -63 122 -65 155 -5 8 14 14 20 15 14 0
-7 6 -13 13 -13 9 0 24 -56 46 -172 33 -163 33 -172 16 -184 -16 -12 -17 -18
-5 -59 10 -35 17 -44 29 -40 15 4 23 -26 60 -222 24 -126 47 -236 50 -246 4
-11 36 103 80 285 41 167 77 309 80 315 5 9 23 -3 55 -36 48 -49 50 -50 78
-35 33 17 34 20 8 109 l-20 69 59 -58 59 -58 31 18 c17 10 31 21 31 24 -2 26
-67 234 -75 237 -6 2 -20 -3 -30 -11 -20 -14 -19 -16 7 -97 l27 -83 -63 63
c-59 59 -64 61 -89 50 -32 -15 -32 -16 -7 -99 27 -90 25 -96 -16 -50 l-37 41
77 312 c42 171 76 318 76 325 0 18 11 15 41 -14 26 -25 28 -25 58 -10 35 19
36 5 -9 168 l-27 97 64 265 64 265 24 -11 c29 -13 80 5 96 34 5 10 14 16 19
13 11 -7 50 16 50 29 0 14 -91 166 -99 166 -4 0 -12 -5 -19 -12 -6 -6 -13 -10
-15 -7 -2 2 30 141 72 307 73 296 75 303 92 281 15 -20 20 -22 43 -11 26 12
26 13 11 42 l-16 30 419 0 419 0 12 -40 c13 -44 12 -43 35 -34 13 5 15 14 10
41 l-6 34 82 -3 83 -3 28 -120 c15 -66 24 -121 20 -123 -5 -1 -17 -9 -27 -16
-17 -13 -16 -16 24 -60 23 -25 42 -47 42 -50 0 -2 21 -91 46 -197 25 -107 52
-221 59 -253 9 -39 10 -55 3 -48 -8 8 -19 7 -40 -6 -15 -9 -28 -19 -28 -22 0
-3 11 -41 25 -84 14 -44 23 -81 22 -83 -2 -1 -28 26 -58 62 -30 35 -59 64 -65
64 -5 1 -19 -5 -29 -13 -18 -13 -14 -19 64 -105 46 -50 87 -91 93 -91 5 0 22
7 38 15 l29 15 -15 52 c-8 29 -19 66 -25 83 -9 28 -9 29 7 13 12 -11 60 -198
145 -560 71 -299 131 -558 133 -575 4 -30 2 -33 -21 -33 -30 0 -83 -50 -83
-80 0 -35 27 -88 54 -106 19 -11 38 -15 66 -11 22 3 40 4 40 2 0 -2 20 -89 45
-194 25 -105 45 -194 45 -198 0 -5 -10 6 -21 24 -18 29 -23 31 -45 21 -13 -6
-24 -15 -24 -19 0 -4 28 -55 63 -113 34 -59 66 -115 72 -126 13 -27 25 -25 25
3 0 13 3 27 7 30 3 4 7 17 8 30 1 12 7 55 15 95 10 55 19 77 35 88 20 13 21
19 14 65 -7 42 1 95 47 322 29 149 54 273 54 276 0 2 9 -4 20 -14 32 -29 88
-25 116 8 13 15 27 26 31 25 14 -4 53 13 53 22 0 8 -85 158 -95 168 -8 8 -45
-20 -45 -33 0 -9 -10 -15 -24 -15 l-23 0 52 258 c29 141 56 265 60 275 4 11
14 16 24 12 9 -3 25 1 35 8 18 13 18 16 -9 65 -25 46 -27 55 -17 99 9 45 10
46 11 13 3 -78 71 -135 131 -110 17 7 35 21 41 32 5 10 14 16 19 13 11 -7 50
16 50 30 0 5 -29 58 -63 117 l-62 106 -28 -15 -28 -14 21 -33 c26 -43 25 -46
-8 -46 -16 0 -37 -9 -47 -20 -10 -11 -20 -18 -22 -16 -3 2 19 121 48 264 49
245 53 261 75 266 13 4 31 17 40 31 9 14 20 22 25 19 11 -6 49 14 49 27 0 5
-20 44 -44 87 l-45 77 33 160 32 160 537 3 c295 1 537 1 537 0 0 -8 -61 -232
-63 -234 -2 -2 -11 28 -21 66 -10 39 -21 70 -24 70 -4 0 -17 -8 -30 -18 l-22
-17 25 -74 c14 -41 24 -76 22 -77 -2 -2 -29 23 -62 56 -57 58 -58 58 -84 42
-14 -9 -27 -16 -28 -17 -2 -1 9 -39 23 -84 14 -46 24 -84 22 -86 -2 -2 -28 25
-58 61 -30 35 -59 64 -65 64 -5 0 -19 -7 -30 -16 -19 -14 -16 -18 71 -105 l91
-91 32 16 c17 9 31 18 31 20 0 2 -9 34 -21 71 -11 37 -19 69 -17 71 2 2 28
-20 56 -49 l52 -53 -61 -236 c-61 -235 -62 -237 -96 -255 -21 -11 -31 -23 -28
-32 3 -7 10 -34 17 -58 17 -67 -1 -74 -48 -19 -42 50 -49 53 -79 31 -18 -15
-17 -18 45 -80 l64 -65 -319 -1222 c-175 -673 -323 -1239 -328 -1258 -8 -32
-10 -33 -23 -16 -12 18 -15 18 -38 2 l-26 -16 20 -33 c24 -38 25 -48 6 -41
-18 7 -72 -21 -80 -41 -18 -48 2 -111 45 -142 16 -12 15 -20 -10 -120 l-27
-108 -132 -3 c-86 -2 -132 1 -132 8 0 5 8 10 18 10 10 0 27 6 37 14 18 13 16
17 -29 95 -26 44 -52 81 -58 81 -19 0 -48 -21 -43 -31 4 -5 -5 -9 -18 -9 -32
0 -73 -33 -81 -65 -4 -14 0 -41 9 -61 8 -20 15 -38 15 -41 0 -2 -37 -3 -82 -1
-80 3 -83 4 -86 28 -7 65 -10 70 -38 58 -21 -10 -24 -16 -19 -37 11 -43 11
-45 -6 -48 -17 -4 -44 17 -51 39 -6 18 -58 -6 -58 -27 0 -13 -28 -15 -227 -13
l-228 3 -42 165 c-23 91 -42 174 -42 185 0 14 24 -7 83 -70 l84 -90 35 17 36
17 -15 53 c-8 29 -19 67 -25 83 -9 27 -4 24 50 -29 45 -45 63 -57 79 -52 44
14 45 28 10 155 -18 67 -36 121 -39 121 -4 0 -16 -8 -28 -17 l-22 -18 26 -74
c14 -41 25 -78 25 -83 0 -5 -27 21 -61 57 l-61 65 -29 -17 c-16 -10 -29 -20
-29 -23 0 -3 11 -41 25 -84 14 -44 23 -81 21 -83 -2 -2 -13 8 -24 22 -12 15
-38 45 -58 68 -37 40 -38 40 -65 25 l-27 -16 -15 62 c-9 33 -79 325 -157 648
-130 534 -141 590 -130 618 9 21 18 29 29 25 10 -3 26 1 36 9 18 13 16 19 -45
125 -52 89 -68 111 -84 109 -18 -3 -24 14 -60 161 -36 151 -38 164 -22 173 15
9 14 16 -18 72 -23 42 -45 102 -62 177 -14 63 -29 117 -33 121 -4 5 -20 -45
-35 -110 -22 -89 -36 -125 -57 -150 -30 -33 -36 -69 -20 -101 6 -10 7 -28 4
-40 -5 -19 -9 -16 -36 31 -16 29 -31 54 -32 56 -7 9 -55 -24 -51 -35 4 -9 -4
-13 -25 -13 -37 0 -79 -39 -79 -75 0 -31 21 -73 46 -97 43 -38 106 -28 131 22
l13 25 0 -25 c0 -14 -29 -139 -64 -277 -58 -232 -66 -255 -95 -282 -33 -31
-39 -62 -20 -105 10 -21 0 -73 -66 -338 -73 -292 -95 -364 -95 -310 0 19 -2
20 -25 10 -14 -6 -25 -17 -25 -23 0 -19 22 -79 32 -86 10 -7 -2 -70 -12 -64
-5 3 -25 34 -45 70 -20 36 -39 65 -43 65 -10 -1 -42 -26 -42 -34 0 -4 25 -50
56 -103 l56 -95 -71 -282 c-55 -212 -77 -285 -93 -298 -18 -16 -53 -18 -394
-18 -243 0 -374 4 -374 10 0 6 3 10 8 10 35 1 30 21 -34 131 -36 63 -67 115
-69 117 -1 1 -12 -6 -25 -16 -22 -18 -22 -19 -6 -50 21 -40 21 -42 -9 -42 -14
0 -37 -11 -51 -26 -21 -20 -25 -32 -22 -62 3 -20 8 -45 13 -56 6 -14 4 -17
-11 -14 -10 2 -35 31 -55 66 -46 79 -42 75 -72 61 l-26 -12 20 -38 19 -39 -21
0 c-11 0 -34 -8 -50 -17 -15 -9 -30 -15 -33 -12 -2 2 -27 91 -54 197 l-51 193
24 9 c13 5 30 18 38 30 8 11 18 20 23 18 15 -3 54 13 54 22 0 8 -85 158 -95
168 -8 8 -45 -20 -45 -33 0 -9 -10 -15 -23 -15 -23 0 -27 13 -92 263 -53 206
-68 275 -66 325 1 54 -1 64 -17 68 -14 4 -27 41 -61 177 -24 95 -46 179 -49
187 -4 13 -3 13 11 2 12 -10 21 -11 36 -2 12 6 21 14 21 17 0 4 -29 56 -64
117 -59 101 -68 126 -106 274 l-41 164 26 20 c14 10 25 27 25 36 0 12 3 13 12
4 10 -10 36 -4 57 14 2 2 -82 157 -94 172 -1 1 -14 -3 -29 -9 -16 -8 -25 -18
-21 -27 3 -9 -1 -12 -12 -10 -13 2 -28 47 -65 193 -26 105 -45 200 -43 213 6
26 -51 239 -69 257 -6 6 -29 84 -51 173 -36 148 -38 164 -23 178 14 15 14 21
-3 77 -28 93 -23 97 34 33 l53 -59 32 17 c18 9 32 21 32 26 0 30 -65 240 -74
240 -6 0 -19 -7 -30 -15 -18 -13 -17 -16 8 -91 14 -43 24 -79 22 -81 -2 -2
-29 24 -59 57 -46 49 -61 59 -79 55 -23 -6 -25 1 -76 207 -29 117 -52 216 -52
221 0 15 113 7 131 -9z m4579 -449 c0 -23 -16 -42 -27 -32 -3 3 -2 19 2 36 8
35 25 32 25 -4z m-3532 -217 c30 -30 3 -82 -40 -76 -29 4 -47 50 -28 72 15 19
51 21 68 4z m1082 -57 c26 -49 -7 -94 -51 -71 -17 9 -19 17 -13 43 3 18 8 35
11 40 8 14 42 7 53 -12z m2440 -380 c25 -48 -7 -94 -50 -71 -25 13 -36 55 -20
75 18 21 57 19 70 -4z m-2661 -466 c0 -5 -8 1 -18 14 -11 14 -16 33 -13 45 5
17 7 15 18 -14 7 -19 13 -39 13 -45z m-1542 -191 c12 -19 14 -30 6 -43 -20
-31 -41 -25 -52 16 -14 51 -14 53 9 53 11 0 27 -12 37 -26z m2243 -77 c14 -27
14 -29 -8 -47 -18 -15 -28 -17 -43 -10 -29 16 -42 46 -29 71 16 29 60 22 80
-14z m1744 -76 c22 -24 18 -49 -9 -67 -41 -27 -88 39 -53 74 18 18 42 15 62
-7z m-3096 -3 c18 -18 15 -66 -5 -76 -42 -22 -93 37 -63 73 15 18 51 20 68 3z
m2606 -256 c3 -5 8 -28 12 -50 6 -40 5 -42 -18 -42 -42 0 -65 45 -42 79 15 21
39 28 48 13z m-824 -126 c0 -6 -4 -17 -9 -25 -7 -11 -12 -4 -20 25 -15 55 -13
63 9 35 11 -13 20 -28 20 -35z m-2208 -1243 c10 -9 18 -24 18 -34 0 -21 -37
-50 -55 -43 -15 6 -29 69 -20 84 9 15 36 12 57 -7z m3906 -213 c-12 -46 -25
-51 -34 -15 -7 27 9 55 31 55 10 0 11 -9 3 -40z m-388 -220 c33 -33 20 -80
-21 -80 -43 0 -67 69 -31 89 24 15 29 14 52 -9z m-3096 -6 c29 -28 14 -84 -21
-84 -17 0 -53 36 -53 54 0 18 27 46 45 46 7 0 21 -7 29 -16z"/>
<path d="M3425 7434 c-11 -8 -19 -20 -17 -25 1 -5 -11 -9 -26 -9 -31 0 -65
-30 -76 -67 -14 -46 48 -133 95 -133 30 0 68 22 75 42 4 12 12 17 23 13 9 -3
26 1 36 9 18 13 17 17 -31 100 -27 47 -51 86 -54 86 -3 -1 -14 -8 -25 -16z
m21 -99 c19 -29 11 -61 -17 -70 -41 -13 -78 52 -47 83 19 19 46 14 64 -13z"/>
<path d="M5687 7437 c-16 -11 -16 -16 -4 -52 14 -41 24 -50 44 -37 15 9 5 102
-11 102 -7 0 -20 -6 -29 -13z"/>
<path d="M5583 7392 l-23 -17 20 -33 c25 -41 25 -42 -6 -42 -85 0 -109 -104
-38 -171 35 -33 89 -32 120 4 13 15 27 26 31 25 14 -3 53 13 53 22 0 10 -108
199 -124 217 -9 9 -16 8 -33 -5z m51 -151 c22 -24 18 -49 -9 -67 -41 -27 -88
39 -53 74 18 18 42 15 62 -7z"/>
<path d="M7516 7395 c-17 -13 -18 -18 -6 -60 13 -48 21 -53 39 -31 11 13 4
106 -8 106 -3 0 -15 -7 -25 -15z"/>
<path d="M3187 7358 c-16 -12 -16 -17 -4 -53 20 -57 42 -53 42 9 0 53 -10 64
-38 44z"/>
<path d="M7448 7354 l-27 -14 16 -45 c16 -47 19 -50 41 -36 11 6 12 20 5 59
l-8 50 -27 -14z"/>
<path d="M3116 7317 c-16 -12 -17 -18 -5 -55 22 -73 64 -31 45 44 -7 27 -15
29 -40 11z"/>
<path d="M7337 7303 l-28 -14 21 -33 c26 -43 25 -46 -8 -46 -92 0 -94 -152 -3
-190 37 -15 85 0 102 32 5 10 14 16 19 13 11 -7 50 16 50 30 0 5 -29 58 -63
117 l-62 106 -28 -15z m53 -152 c25 -48 -7 -94 -50 -71 -25 13 -36 55 -20 75
18 21 57 19 70 -4z"/>
<path d="M5371 7271 l-24 -18 22 -37 23 -36 -25 0 c-14 0 -33 -3 -42 -6 -18
-7 -45 -55 -45 -79 0 -32 33 -86 61 -100 41 -22 67 -18 98 13 15 15 34 26 42
25 8 -2 22 4 32 11 17 13 15 21 -49 130 -36 64 -67 116 -68 116 0 0 -12 -9
-25 -19z m59 -163 c14 -26 13 -29 -6 -49 -27 -26 -61 -18 -75 18 -7 20 -6 30
8 45 23 25 54 19 73 -14z"/>
<path d="M3007 7268 c-16 -12 -12 -23 46 -122 35 -61 68 -111 73 -113 5 -1 18
4 28 12 18 14 16 19 -44 125 -35 60 -69 110 -75 110 -6 0 -19 -6 -28 -12z"/>
<path d="M2947 7159 c-9 -6 -15 -14 -12 -20 4 -5 -6 -9 -20 -9 -32 0 -85 -50
-85 -80 0 -33 26 -86 51 -104 32 -22 81 -20 107 4 12 12 22 25 22 29 0 5 8 7
18 5 9 -3 25 1 35 8 17 13 15 18 -29 96 -47 83 -55 90 -87 71z m23 -89 c11
-11 20 -25 20 -31 0 -24 -22 -49 -44 -49 -40 0 -63 46 -40 79 19 26 38 27 64
1z"/>
<path d="M5187 7089 c-9 -6 -15 -14 -12 -20 4 -5 -6 -9 -20 -9 -32 0 -85 -50
-85 -80 0 -33 26 -86 51 -104 32 -22 81 -20 107 4 12 12 22 25 22 29 0 5 8 7
18 5 9 -3 25 1 35 8 17 13 15 18 -29 96 -47 83 -55 90 -87 71z m23 -89 c11
-11 20 -25 20 -31 0 -24 -22 -49 -44 -49 -40 0 -63 46 -40 79 19 26 38 27 64
1z"/>
<path d="M4957 7015 c-17 -12 -18 -18 -7 -52 17 -53 20 -56 36 -42 15 12 18
48 8 87 -7 26 -12 27 -37 7z"/>
<path d="M4888 6976 c-22 -16 -22 -26 -3 -73 14 -34 17 -35 32 -21 12 13 14
27 9 62 -8 49 -12 53 -38 32z"/>
<path d="M4778 6926 c-10 -7 -18 -16 -18 -20 0 -17 124 -216 134 -216 7 0 20
6 29 13 15 11 10 23 -48 122 -35 60 -68 111 -72 112 -4 1 -16 -4 -25 -11z"/>
<path d="M5763 6795 c-21 -15 -21 -17 -6 -60 13 -40 17 -44 35 -34 14 8 18 17
14 32 -3 12 -6 34 -6 50 0 31 -7 33 -37 12z"/>
<path d="M5692 6752 c-22 -17 -22 -19 -6 -57 20 -50 21 -50 38 -36 10 8 12 24
9 54 -7 54 -13 60 -41 39z"/>
<path d="M3428 6749 c-10 -5 -18 -17 -18 -24 0 -9 -10 -15 -26 -15 -85 0 -109
-104 -38 -171 35 -33 89 -32 120 4 13 15 27 26 31 25 14 -3 53 13 53 22 0 12
-93 170 -100 170 -3 0 -13 -5 -22 -11z m16 -98 c22 -24 18 -49 -9 -67 -41 -27
-88 39 -53 74 18 18 42 15 62 -7z"/>
<path d="M5585 6708 c-11 -6 -22 -12 -24 -14 -2 -2 6 -19 18 -39 11 -20 21
-37 21 -38 0 -1 -14 -2 -30 -3 -63 -2 -94 -66 -64 -129 22 -46 49 -65 95 -65
28 0 43 6 58 26 11 14 24 23 30 20 5 -3 19 2 31 12 l23 18 -64 112 c-35 61
-66 111 -69 111 -3 0 -14 -5 -25 -11z m57 -164 c14 -31 1 -57 -31 -62 -30 -5
-51 15 -51 48 0 34 6 40 42 40 21 0 32 -7 40 -26z"/>
<path d="M7516 6705 c-17 -13 -18 -18 -6 -60 13 -48 21 -53 39 -31 11 13 4
106 -8 106 -3 0 -15 -7 -25 -15z"/>
<path d="M3192 6672 c-21 -17 -22 -20 -9 -57 19 -54 41 -52 45 2 2 24 -1 49
-5 57 -7 13 -11 12 -31 -2z"/>
<path d="M7448 6664 l-27 -14 16 -45 c16 -47 19 -50 41 -36 11 6 12 20 5 59
l-8 50 -27 -14z"/>
<path d="M3122 6632 c-21 -17 -22 -20 -9 -57 8 -22 20 -40 28 -40 16 0 24 59
12 92 -8 21 -9 21 -31 5z"/>
<path d="M7333 6615 l-22 -16 19 -32 c24 -38 25 -48 6 -41 -18 7 -72 -21 -80
-41 -11 -30 -6 -80 11 -105 26 -39 45 -49 85 -50 28 0 42 7 62 31 14 17 26 26
26 20 0 -8 10 -6 29 4 l29 15 -66 115 c-37 63 -69 115 -72 115 -3 0 -15 -7
-27 -15z m55 -147 c30 -30 3 -82 -40 -76 -29 4 -47 50 -28 72 15 19 51 21 68
4z"/>
<path d="M3011 6582 l-21 -17 66 -112 c63 -108 66 -112 90 -101 13 6 24 15 24
19 0 10 -120 218 -130 224 -4 3 -17 -3 -29 -13z"/>
<path d="M5370 6582 l-22 -18 22 -37 22 -37 -31 0 c-39 0 -81 -39 -81 -75 0
-60 52 -119 105 -119 36 0 75 27 75 53 0 11 3 12 12 3 10 -10 37 -3 57 14 4 3
-128 234 -134 234 -1 0 -13 -8 -25 -18z m60 -165 c14 -27 14 -29 -8 -47 -18
-15 -28 -17 -43 -10 -29 16 -42 46 -29 71 16 29 60 22 80 -14z"/>
<path d="M2951 6474 c-12 -8 -19 -20 -16 -25 4 -5 -5 -9 -19 -9 -13 0 -32 -3
-41 -6 -18 -7 -45 -55 -45 -79 0 -32 33 -86 61 -100 41 -22 67 -18 98 13 15
15 34 26 42 25 8 -2 22 4 32 11 18 14 16 19 -28 95 -26 45 -50 83 -54 86 -4 2
-18 -3 -30 -11z m29 -106 c14 -26 13 -29 -6 -49 -27 -26 -61 -18 -75 18 -7 20
-6 30 8 45 23 25 54 19 73 -14z"/>
<path d="M5191 6404 c-12 -8 -19 -20 -16 -25 4 -5 -5 -9 -19 -9 -13 0 -32 -3
-41 -6 -18 -7 -45 -55 -45 -79 0 -32 33 -86 61 -100 41 -22 67 -18 98 13 15
15 34 26 42 25 8 -2 22 4 32 11 18 14 16 19 -28 95 -26 45 -50 83 -54 86 -4 2
-18 -3 -30 -11z m29 -106 c14 -26 13 -29 -6 -49 -27 -26 -61 -18 -75 18 -7 20
-6 30 8 45 23 25 54 19 73 -14z"/>
<path d="M4956 6327 c-16 -12 -17 -18 -5 -55 8 -30 17 -42 28 -40 19 4 25 29
16 74 -7 37 -12 40 -39 21z"/>
<path d="M4886 6287 c-16 -12 -17 -18 -5 -55 12 -40 31 -54 44 -31 9 13 -4 99
-14 99 -4 0 -15 -6 -25 -13z"/>
<path d="M3603 6238 l-22 -11 20 -38 19 -39 -25 0 c-41 0 -75 -41 -75 -91 0
-33 6 -47 34 -75 43 -43 85 -46 124 -7 15 15 34 28 42 28 8 1 22 6 31 11 14 8
8 24 -47 119 -36 61 -68 111 -72 112 -4 1 -17 -3 -29 -9z m45 -144 c36 -25 24
-84 -17 -84 -42 0 -68 69 -33 89 23 14 24 14 50 -5z"/>
<path d="M4776 6237 c-22 -16 -26 -7 48 -135 32 -56 63 -102 70 -102 6 0 19 6
28 14 16 11 12 22 -46 121 -35 60 -67 110 -73 112 -5 2 -17 -3 -27 -10z"/>
<path d="M4718 6129 c-10 -5 -18 -16 -18 -24 0 -8 -6 -12 -14 -9 -18 7 -72
-21 -80 -41 -11 -30 -6 -80 11 -105 26 -39 45 -49 85 -50 28 0 42 7 62 31 14
17 26 26 26 20 0 -8 11 -6 29 4 l30 15 -49 82 c-26 45 -52 83 -57 85 -4 1 -16
-2 -25 -8z m20 -91 c30 -30 3 -82 -40 -76 -29 4 -47 50 -28 72 15 19 51 21 68
4z"/>
<path d="M5762 6108 c-23 -12 -23 -19 2 -81 10 -24 13 -26 28 -15 13 10 15 23
11 61 -6 51 -7 51 -41 35z"/>
<path d="M5692 6068 c-23 -12 -23 -19 2 -81 9 -24 13 -26 27 -15 12 10 15 25
11 61 -4 50 -5 51 -40 35z"/>
<path d="M3424 6057 c-12 -7 -19 -16 -18 -22 2 -5 -10 -10 -26 -11 -63 -2 -94
-66 -64 -129 22 -46 49 -65 95 -65 28 0 43 6 58 26 11 14 24 23 30 20 5 -3 19
2 31 12 l23 18 -48 82 c-26 45 -50 82 -53 82 -4 -1 -16 -6 -28 -13z m28 -103
c14 -31 1 -57 -31 -62 -30 -5 -51 15 -51 48 0 34 6 40 42 40 21 0 32 -7 40
-26z"/>
<path d="M5576 6015 c-18 -13 -18 -15 4 -49 l22 -36 -25 0 c-32 0 -73 -33 -81
-64 -8 -33 20 -101 49 -120 36 -24 82 -20 111 9 14 14 31 25 38 25 6 0 21 6
31 14 17 12 15 19 -46 124 -35 62 -68 112 -74 112 -5 -1 -18 -7 -29 -15z m54
-145 c33 -33 20 -80 -21 -80 -43 0 -67 69 -31 89 24 15 29 14 52 -9z"/>
<path d="M7515 6016 c-18 -13 -18 -17 -5 -60 14 -43 17 -46 33 -33 16 11 18
21 12 60 -8 51 -12 54 -40 33z"/>
<path d="M3191 5984 c-22 -16 -22 -22 0 -82 7 -18 12 -21 27 -13 16 9 18 17
12 56 -8 56 -11 58 -39 39z"/>
<path d="M7442 5973 c-18 -17 -19 -20 -3 -61 15 -37 19 -41 34 -30 14 11 16
22 11 61 -7 52 -12 55 -42 30z"/>
<path d="M6243 5968 c-13 -6 -23 -14 -23 -18 0 -3 11 -40 25 -80 14 -40 24
-75 22 -76 -2 -2 -29 23 -62 56 -58 58 -59 59 -87 44 -15 -8 -28 -16 -28 -17
0 -2 11 -41 24 -87 14 -47 24 -85 23 -86 -1 -2 -27 26 -57 62 -30 35 -59 64
-65 64 -6 0 -20 -7 -31 -15 -18 -13 -15 -19 72 -105 l91 -92 30 19 30 18 -23
79 -22 79 57 -57 c31 -31 61 -56 66 -56 6 0 20 9 33 18 l24 18 -33 122 c-18
67 -35 122 -38 121 -3 0 -16 -5 -28 -11z"/>
<path d="M3122 5944 c-23 -16 -23 -22 -1 -81 14 -38 39 -18 39 31 0 57 -10 70
-38 50z"/>
<path d="M7333 5928 l-22 -11 20 -38 19 -39 -25 0 c-41 0 -75 -41 -75 -91 0
-33 6 -47 34 -75 43 -43 85 -46 124 -7 15 15 34 28 42 28 8 1 22 6 31 11 14 8
8 24 -47 119 -36 61 -68 111 -72 112 -4 1 -17 -3 -29 -9z m45 -144 c36 -25 24
-84 -17 -84 -42 0 -68 69 -33 89 23 14 24 14 50 -5z"/>
<path d="M3015 5898 c-11 -6 -21 -12 -23 -14 -2 -1 27 -54 63 -118 59 -101 70
-114 86 -106 10 6 21 14 24 20 5 9 -115 230 -125 230 -3 -1 -14 -6 -25 -12z"/>
<path d="M7123 5805 l-22 -16 19 -32 c24 -38 25 -48 6 -41 -18 7 -72 -21 -80
-41 -11 -30 -6 -80 11 -105 26 -39 45 -49 85 -50 28 0 42 7 62 31 14 17 26 26
26 20 0 -8 10 -6 29 4 l29 15 -66 115 c-37 63 -69 115 -72 115 -3 0 -15 -7
-27 -15z m55 -147 c30 -30 3 -82 -40 -76 -29 4 -47 50 -28 72 15 19 51 21 68
4z"/>
<path d="M4956 5637 c-16 -12 -17 -18 -5 -55 8 -30 17 -42 28 -40 19 4 25 29
16 74 -7 37 -12 40 -39 21z"/>
<path d="M4886 5597 c-16 -12 -17 -18 -5 -55 12 -40 31 -54 44 -31 9 13 -4 99
-14 99 -4 0 -15 -6 -25 -13z"/>
<path d="M4780 5552 l-24 -19 57 -99 c80 -139 71 -128 98 -114 13 7 25 14 27
15 2 2 -124 223 -133 233 -1 1 -13 -6 -25 -16z"/>
<path d="M3597 5549 c-17 -10 -17 -12 2 -45 26 -44 26 -44 -3 -44 -13 0 -35
-9 -50 -21 -21 -17 -26 -29 -26 -66 0 -38 5 -50 34 -79 43 -43 85 -46 124 -7
15 15 31 27 35 25 12 -4 47 17 47 29 0 19 -122 219 -134 219 -6 0 -19 -5 -29
-11z m55 -146 c26 -24 23 -61 -7 -75 -21 -9 -28 -8 -45 7 -22 20 -26 55 -8 73
17 17 38 15 60 -5z"/>
<path d="M4716 5437 c-15 -15 -36 -27 -47 -27 -35 0 -69 -44 -69 -91 0 -33 6
-47 34 -75 43 -43 85 -46 124 -7 15 15 34 28 42 28 8 1 23 6 32 11 14 8 10 18
-29 84 -24 41 -48 81 -52 89 -7 12 -14 9 -35 -12z m12 -83 c36 -25 24 -84 -17
-84 -42 0 -68 69 -33 89 23 14 24 14 50 -5z"/>
<path d="M5757 5416 c-17 -13 -17 -16 -1 -55 17 -42 21 -46 41 -33 14 9 5 102
-11 102 -6 0 -19 -7 -29 -14z"/>
<path d="M5688 5376 c-17 -12 -17 -16 -2 -59 14 -42 17 -45 35 -34 11 7 17 18
14 25 -3 8 -5 29 -5 48 0 36 -13 43 -42 20z"/>
<path d="M3417 5369 c-9 -6 -15 -14 -12 -20 4 -5 -5 -9 -18 -9 -32 0 -73 -33
-81 -64 -8 -33 20 -101 49 -120 36 -24 82 -20 111 9 14 14 31 25 38 25 6 0 21
6 31 14 18 13 16 17 -29 95 -48 82 -57 89 -89 70z m23 -89 c33 -33 20 -80 -21
-80 -43 0 -67 69 -31 89 24 15 29 14 52 -9z"/>
<path d="M7515 5326 c-17 -12 -18 -18 -7 -55 12 -39 33 -53 47 -31 8 13 -5
100 -14 100 -4 0 -16 -6 -26 -14z"/>
<path d="M3193 5297 c-27 -12 -28 -15 -7 -67 13 -32 19 -38 32 -31 12 7 16 21
13 53 -3 52 -9 59 -38 45z"/>
<path d="M7443 5288 c-20 -10 -21 -12 -6 -54 14 -41 34 -56 47 -35 7 11 -5
101 -13 100 -3 0 -16 -5 -28 -11z"/>
<path d="M6236 5275 c-18 -13 -17 -16 8 -91 14 -43 24 -79 22 -81 -2 -2 -29
24 -60 57 -42 46 -61 60 -75 55 -39 -12 -42 -28 -21 -101 12 -38 23 -76 26
-84 2 -8 -24 15 -59 53 l-62 67 -27 -18 -27 -18 92 -92 92 -92 32 20 32 19
-20 63 c-28 94 -24 99 34 34 l53 -59 32 17 c18 9 32 21 32 26 0 30 -65 240
-74 240 -6 0 -19 -7 -30 -15z"/>
<path d="M3122 5257 c-24 -11 -24 -23 -2 -81 15 -40 40 -23 40 28 0 55 -9 66
-38 53z"/>
<path d="M7327 5239 c-17 -10 -17 -12 2 -45 26 -44 26 -44 -3 -44 -13 0 -35
-9 -50 -21 -21 -17 -26 -29 -26 -66 0 -38 5 -50 34 -79 43 -43 85 -46 124 -7
15 15 31 27 35 25 12 -4 47 17 47 29 0 19 -122 219 -134 219 -6 0 -19 -5 -29
-11z m55 -146 c26 -24 23 -61 -7 -75 -21 -9 -28 -8 -45 7 -22 20 -26 55 -8 73
17 17 38 15 60 -5z"/>
<path d="M7123 5118 l-22 -11 20 -38 19 -39 -25 0 c-41 0 -75 -41 -75 -91 0
-33 6 -47 34 -75 43 -43 85 -46 124 -7 15 15 34 28 42 28 8 1 22 6 31 11 14 8
8 24 -47 119 -36 61 -68 111 -72 112 -4 1 -17 -3 -29 -9z m45 -144 c36 -25 24
-84 -17 -84 -42 0 -68 69 -33 89 23 14 24 14 50 -5z"/>
<path d="M3928 5034 l-27 -14 16 -45 c16 -47 19 -50 41 -36 11 6 12 20 5 59
l-8 50 -27 -14z"/>
<path d="M3815 4984 c-20 -15 -20 -15 2 -53 l22 -38 -23 4 c-15 3 -34 -5 -55
-23 -30 -25 -33 -31 -28 -72 11 -104 129 -142 175 -57 6 11 12 14 12 7 0 -9 7
-9 30 3 l31 16 -19 32 c-11 18 -41 69 -67 115 -26 45 -50 82 -53 82 -4 0 -16
-7 -27 -16z m54 -148 c21 -25 10 -70 -17 -74 -27 -4 -62 23 -62 48 0 37 55 55
79 26z"/>
<path d="M4961 4953 c-22 -18 -22 -21 -10 -61 9 -30 17 -41 27 -37 7 3 16 5
18 5 6 0 3 62 -5 89 -6 23 -6 23 -30 4z"/>
<path d="M6944 4937 c-12 -7 -19 -16 -18 -22 2 -5 -10 -10 -26 -11 -63 -2 -94
-66 -64 -129 22 -46 49 -65 95 -65 28 0 43 6 58 26 11 14 24 23 30 20 5 -3 19
2 31 12 l23 18 -48 82 c-26 45 -50 82 -53 82 -4 -1 -16 -6 -28 -13z m28 -103
c14 -31 1 -57 -31 -62 -30 -5 -51 15 -51 48 0 34 6 40 42 40 21 0 32 -7 40
-26z"/>
<path d="M4892 4911 c-23 -16 -23 -20 -11 -59 22 -75 58 -47 43 33 l-9 44 -23
-18z"/>
<path d="M3607 4863 l-28 -14 21 -33 c26 -43 25 -46 -8 -46 -92 0 -94 -152 -3
-190 37 -15 85 0 102 32 5 10 14 16 19 13 11 -7 50 16 50 30 0 5 -29 58 -63
117 l-62 106 -28 -15z m53 -152 c25 -48 -7 -94 -50 -71 -25 13 -36 55 -20 75
18 21 57 19 70 -4z"/>
<path d="M4783 4867 c-13 -5 -23 -14 -23 -20 0 -12 123 -227 130 -227 3 0 15
8 27 18 l21 17 -63 108 c-35 60 -65 110 -67 112 -2 1 -13 -2 -25 -8z"/>
<path d="M4723 4758 c-13 -6 -23 -17 -23 -25 0 -7 -10 -13 -24 -13 -13 0 -35
-9 -50 -21 -21 -17 -26 -29 -26 -66 0 -38 5 -50 34 -79 43 -43 85 -46 124 -7
15 15 31 27 35 25 12 -4 47 17 47 29 0 8 -90 170 -94 168 0 0 -11 -5 -23 -11z
m9 -95 c26 -24 23 -61 -7 -75 -21 -9 -28 -8 -45 7 -22 20 -26 55 -8 73 17 17
38 15 60 -5z"/>
<path d="M5758 4730 c-15 -9 -15 -14 -1 -55 15 -46 20 -50 40 -37 14 9 5 102
-11 102 -6 0 -19 -5 -28 -10z"/>
<path d="M3425 4684 c-11 -8 -19 -20 -17 -25 1 -5 -11 -9 -26 -9 -31 0 -65
-30 -76 -67 -14 -46 48 -133 95 -133 30 0 68 22 75 42 4 12 12 17 23 13 9 -3
26 1 36 9 18 13 17 17 -31 100 -27 47 -51 86 -54 86 -3 -1 -14 -8 -25 -16z
m21 -99 c19 -29 11 -61 -17 -70 -41 -13 -78 52 -47 83 19 19 46 14 64 -13z"/>
<path d="M4491 4681 l-24 -18 27 -78 c14 -43 24 -80 22 -82 -2 -2 -28 24 -59
57 -59 63 -70 68 -101 45 -19 -15 -19 -16 6 -102 l26 -88 -62 69 -62 69 -28
-18 -27 -18 91 -92 92 -93 29 17 c34 19 35 26 9 110 -11 36 -18 66 -16 68 1 2
26 -24 55 -57 l52 -60 32 16 c18 9 33 18 35 19 4 4 -60 238 -67 247 -3 4 -17
-1 -30 -11z"/>
<path d="M6471 4664 c-12 -8 -19 -20 -16 -25 4 -5 -5 -9 -19 -9 -13 0 -32 -3
-41 -6 -18 -7 -45 -55 -45 -79 0 -32 33 -86 61 -100 41 -22 67 -18 98 13 15
15 34 26 42 25 8 -2 22 4 32 11 18 14 16 19 -28 95 -26 45 -50 83 -54 86 -4 2
-18 -3 -30 -11z m29 -106 c14 -26 13 -29 -6 -49 -27 -26 -61 -18 -75 18 -7 20
-6 30 8 45 23 25 54 19 73 -14z"/>
<path d="M7518 4644 l-27 -14 16 -45 c16 -47 19 -50 41 -36 11 6 12 20 5 59
l-8 50 -27 -14z"/>
<path d="M7449 4603 c-26 -16 -27 -17 -12 -60 15 -45 19 -48 41 -35 9 6 10 22
5 60 l-8 51 -26 -16z"/>
<path d="M6236 4587 c-18 -13 -18 -16 4 -83 13 -38 25 -76 27 -84 3 -8 -22 14
-55 49 l-59 65 -32 -14 c-26 -10 -31 -17 -27 -34 3 -12 15 -52 26 -91 l20 -70
-61 67 -61 68 -30 -16 -31 -16 94 -94 93 -93 31 19 c16 11 29 23 29 27 -1 5
-11 42 -23 83 l-21 75 61 -62 60 -63 27 17 c15 9 29 18 31 20 9 6 -63 243 -74
243 -6 0 -19 -6 -29 -13z"/>
<path d="M7337 4553 l-28 -14 21 -33 c26 -43 25 -46 -8 -46 -92 0 -94 -152 -3
-190 37 -15 85 0 102 32 5 10 14 16 19 13 11 -7 50 16 50 30 0 5 -29 58 -63
117 l-62 106 -28 -15z m53 -152 c25 -48 -7 -94 -50 -71 -25 13 -36 55 -20 75
18 21 57 19 70 -4z"/>
<path d="M7117 4429 c-17 -10 -17 -12 2 -45 26 -44 26 -44 -3 -44 -13 0 -35
-9 -50 -21 -21 -17 -26 -29 -26 -66 0 -38 5 -50 34 -79 43 -43 85 -46 124 -7
15 15 31 27 35 25 12 -4 47 17 47 29 0 19 -122 219 -134 219 -6 0 -19 -5 -29
-11z m55 -146 c26 -24 23 -61 -7 -75 -21 -9 -28 -8 -45 7 -22 20 -26 55 -8 73
17 17 38 15 60 -5z"/>
<path d="M3995 4386 c-18 -13 -18 -17 -5 -60 14 -43 17 -46 33 -33 16 11 18
21 12 60 -8 51 -12 54 -40 33z"/>
<path d="M3922 4343 c-18 -17 -19 -20 -3 -61 15 -37 19 -41 34 -30 14 11 16
22 11 61 -7 52 -12 55 -42 30z"/>
<path d="M3815 4296 c-19 -14 -19 -16 -2 -44 22 -39 22 -38 -13 -45 -63 -13
-88 -74 -55 -137 33 -64 98 -79 144 -32 16 15 33 26 39 24 7 -2 20 3 31 10 19
13 17 18 -43 123 -35 60 -67 110 -72 112 -6 2 -19 -3 -29 -11z m47 -143 c34
-31 14 -89 -29 -81 -9 2 -24 15 -32 30 -14 24 -14 28 3 47 23 25 34 26 58 4z"/>
<path d="M6937 4249 c-9 -6 -15 -14 -12 -20 4 -5 -5 -9 -18 -9 -32 0 -73 -33
-81 -64 -8 -33 20 -101 49 -120 36 -24 82 -20 111 9 14 14 31 25 38 25 6 0 21
6 31 14 18 13 16 17 -29 95 -48 82 -57 89 -89 70z m23 -89 c33 -33 20 -80 -21
-80 -43 0 -67 69 -31 89 24 15 29 14 52 -9z"/>
<path d="M3603 4175 l-22 -16 19 -32 c24 -38 25 -48 6 -41 -18 7 -72 -21 -80
-41 -11 -30 -6 -80 11 -105 26 -39 45 -49 85 -50 28 0 42 7 62 31 14 17 26 26
26 20 0 -8 10 -6 29 4 l29 15 -66 115 c-37 63 -69 115 -72 115 -3 0 -15 -7
-27 -15z m55 -147 c30 -30 3 -82 -40 -76 -29 4 -47 50 -28 72 15 19 51 21 68
4z"/>
<path d="M6711 4174 c-22 -16 -22 -22 0 -82 7 -18 12 -21 27 -13 16 9 18 17
12 56 -8 56 -11 58 -39 39z"/>
<path d="M6642 4134 c-23 -16 -23 -22 -1 -81 14 -38 39 -18 39 31 0 57 -10 70
-38 50z"/>
<path d="M6526 4085 c-18 -13 -16 -18 38 -112 79 -139 76 -136 104 -115 l23
18 -63 109 c-35 60 -68 110 -73 111 -6 2 -18 -3 -29 -11z"/>
<path d="M4718 4066 c-10 -7 -18 -18 -18 -25 0 -6 -13 -11 -28 -11 -92 0 -94
-152 -3 -190 37 -15 85 0 102 32 5 10 14 16 19 13 11 -7 50 16 50 29 0 13 -91
166 -98 166 -4 0 -15 -7 -24 -14z m22 -95 c25 -48 -7 -94 -50 -71 -25 13 -36
55 -20 75 18 21 57 19 70 -4z"/>
<path d="M4493 3997 c-29 -13 -29 -17 2 -107 14 -40 23 -75 21 -77 -2 -2 -29
26 -60 62 l-57 65 -30 -15 c-16 -9 -29 -19 -29 -23 0 -5 11 -46 24 -93 l25
-84 -63 70 -63 69 -28 -18 -27 -18 88 -89 c49 -49 94 -89 100 -89 7 0 22 8 35
18 l22 19 -17 63 c-10 35 -21 71 -23 79 -3 9 21 -10 53 -41 33 -32 64 -58 69
-58 6 0 20 8 32 18 l23 17 -32 115 c-17 63 -34 118 -37 121 -3 4 -16 2 -28 -4z"/>
<path d="M6472 3978 c-13 -7 -21 -17 -18 -25 4 -9 -4 -13 -25 -13 -37 0 -79
-39 -79 -75 0 -60 52 -119 105 -119 36 0 75 27 75 53 0 11 3 12 12 3 10 -10
36 -4 57 14 4 4 -93 174 -99 173 -3 0 -15 -5 -28 -11z m28 -111 c14 -27 14
-29 -8 -47 -18 -15 -28 -17 -43 -10 -29 16 -42 46 -29 71 16 29 60 22 80 -14z"/>
<path d="M7117 3739 c-17 -10 -17 -12 2 -45 26 -44 26 -44 -3 -44 -13 0 -35
-9 -50 -21 -21 -17 -26 -29 -26 -66 0 -38 5 -50 34 -79 43 -43 85 -46 124 -7
15 15 31 27 35 25 12 -4 47 17 47 29 0 19 -122 219 -134 219 -6 0 -19 -5 -29
-11z m55 -146 c26 -24 23 -61 -7 -75 -21 -9 -28 -8 -45 7 -22 20 -26 55 -8 73
17 17 38 15 60 -5z"/>
<path d="M3995 3696 c-17 -12 -18 -18 -7 -55 12 -39 33 -53 47 -31 8 13 -5
100 -14 100 -4 0 -16 -6 -26 -14z"/>
<path d="M3923 3658 c-20 -10 -21 -12 -6 -54 14 -41 34 -56 47 -35 7 11 -5
101 -13 100 -3 0 -16 -5 -28 -11z"/>
<path d="M6713 3487 c-27 -12 -28 -15 -7 -67 13 -32 19 -38 32 -31 12 7 16 21
13 53 -3 52 -9 59 -38 45z"/>
</g>
</svg>
